%TF.GenerationSoftware,KiCad,Pcbnew,6.0.6*%
%TF.CreationDate,2022-07-13T22:25:43+03:00*%
%TF.ProjectId,led.d,6c65642e-642e-46b6-9963-61645f706362,0*%
%TF.SameCoordinates,Original*%
%TF.FileFunction,Legend,Top*%
%TF.FilePolarity,Positive*%
%FSLAX46Y46*%
G04 Gerber Fmt 4.6, Leading zero omitted, Abs format (unit mm)*
G04 Created by KiCad (PCBNEW 6.0.6) date 2022-07-13 22:25:43*
%MOMM*%
%LPD*%
G01*
G04 APERTURE LIST*
%ADD10C,0.127000*%
%ADD11C,0.150000*%
%ADD12C,0.120000*%
%ADD13C,0.010000*%
G04 APERTURE END LIST*
D10*
X74445304Y-272991319D02*
X74445304Y-272483319D01*
X74566256Y-272483319D01*
X74638828Y-272507510D01*
X74687208Y-272555890D01*
X74711399Y-272604271D01*
X74735589Y-272701033D01*
X74735589Y-272773605D01*
X74711399Y-272870367D01*
X74687208Y-272918748D01*
X74638828Y-272967129D01*
X74566256Y-272991319D01*
X74445304Y-272991319D01*
X74953304Y-272797795D02*
X75340351Y-272797795D01*
X75146828Y-272991319D02*
X75146828Y-272604271D01*
X74542665Y-272048921D02*
X74542665Y-271540921D01*
X74784569Y-272048921D02*
X74784569Y-271540921D01*
X74905522Y-271540921D01*
X74978093Y-271565112D01*
X75026474Y-271613492D01*
X75050665Y-271661873D01*
X75074855Y-271758635D01*
X75074855Y-271831207D01*
X75050665Y-271927969D01*
X75026474Y-271976350D01*
X74978093Y-272024731D01*
X74905522Y-272048921D01*
X74784569Y-272048921D01*
X78657248Y-273010552D02*
X78657248Y-272502552D01*
X78778200Y-272502552D01*
X78850772Y-272526743D01*
X78899152Y-272575123D01*
X78923343Y-272623504D01*
X78947533Y-272720266D01*
X78947533Y-272792838D01*
X78923343Y-272889600D01*
X78899152Y-272937981D01*
X78850772Y-272986362D01*
X78778200Y-273010552D01*
X78657248Y-273010552D01*
X79165248Y-272817028D02*
X79552295Y-272817028D01*
X78682204Y-272005498D02*
X78754776Y-272029688D01*
X78875728Y-272029688D01*
X78924109Y-272005498D01*
X78948300Y-271981307D01*
X78972490Y-271932926D01*
X78972490Y-271884545D01*
X78948300Y-271836164D01*
X78924109Y-271811974D01*
X78875728Y-271787783D01*
X78778966Y-271763593D01*
X78730585Y-271739402D01*
X78706395Y-271715212D01*
X78682204Y-271666831D01*
X78682204Y-271618450D01*
X78706395Y-271570069D01*
X78730585Y-271545879D01*
X78778966Y-271521688D01*
X78899919Y-271521688D01*
X78972490Y-271545879D01*
X79190204Y-272029688D02*
X79190204Y-271521688D01*
X79407919Y-272029688D02*
X79407919Y-271763593D01*
X79383728Y-271715212D01*
X79335347Y-271691021D01*
X79262776Y-271691021D01*
X79214395Y-271715212D01*
X79190204Y-271739402D01*
X79649823Y-272029688D02*
X79649823Y-271691021D01*
X79649823Y-271521688D02*
X79625633Y-271545879D01*
X79649823Y-271570069D01*
X79674014Y-271545879D01*
X79649823Y-271521688D01*
X79649823Y-271570069D01*
X80085252Y-272005498D02*
X80036871Y-272029688D01*
X79940109Y-272029688D01*
X79891728Y-272005498D01*
X79867538Y-271957117D01*
X79867538Y-271763593D01*
X79891728Y-271715212D01*
X79940109Y-271691021D01*
X80036871Y-271691021D01*
X80085252Y-271715212D01*
X80109442Y-271763593D01*
X80109442Y-271811974D01*
X79867538Y-271860355D01*
X80399728Y-272029688D02*
X80351347Y-272005498D01*
X80327157Y-271957117D01*
X80327157Y-271521688D01*
X80810966Y-272029688D02*
X80810966Y-271521688D01*
X80810966Y-272005498D02*
X80762585Y-272029688D01*
X80665823Y-272029688D01*
X80617442Y-272005498D01*
X80593252Y-271981307D01*
X80569061Y-271932926D01*
X80569061Y-271787783D01*
X80593252Y-271739402D01*
X80617442Y-271715212D01*
X80665823Y-271691021D01*
X80762585Y-271691021D01*
X80810966Y-271715212D01*
D11*
%TO.C,R1000*%
X73334761Y-261452380D02*
X73001428Y-260976190D01*
X72763333Y-261452380D02*
X72763333Y-260452380D01*
X73144285Y-260452380D01*
X73239523Y-260500000D01*
X73287142Y-260547619D01*
X73334761Y-260642857D01*
X73334761Y-260785714D01*
X73287142Y-260880952D01*
X73239523Y-260928571D01*
X73144285Y-260976190D01*
X72763333Y-260976190D01*
X74287142Y-261452380D02*
X73715714Y-261452380D01*
X74001428Y-261452380D02*
X74001428Y-260452380D01*
X73906190Y-260595238D01*
X73810952Y-260690476D01*
X73715714Y-260738095D01*
X74906190Y-260452380D02*
X75001428Y-260452380D01*
X75096666Y-260500000D01*
X75144285Y-260547619D01*
X75191904Y-260642857D01*
X75239523Y-260833333D01*
X75239523Y-261071428D01*
X75191904Y-261261904D01*
X75144285Y-261357142D01*
X75096666Y-261404761D01*
X75001428Y-261452380D01*
X74906190Y-261452380D01*
X74810952Y-261404761D01*
X74763333Y-261357142D01*
X74715714Y-261261904D01*
X74668095Y-261071428D01*
X74668095Y-260833333D01*
X74715714Y-260642857D01*
X74763333Y-260547619D01*
X74810952Y-260500000D01*
X74906190Y-260452380D01*
X75858571Y-260452380D02*
X75953809Y-260452380D01*
X76049047Y-260500000D01*
X76096666Y-260547619D01*
X76144285Y-260642857D01*
X76191904Y-260833333D01*
X76191904Y-261071428D01*
X76144285Y-261261904D01*
X76096666Y-261357142D01*
X76049047Y-261404761D01*
X75953809Y-261452380D01*
X75858571Y-261452380D01*
X75763333Y-261404761D01*
X75715714Y-261357142D01*
X75668095Y-261261904D01*
X75620476Y-261071428D01*
X75620476Y-260833333D01*
X75668095Y-260642857D01*
X75715714Y-260547619D01*
X75763333Y-260500000D01*
X75858571Y-260452380D01*
X76810952Y-260452380D02*
X76906190Y-260452380D01*
X77001428Y-260500000D01*
X77049047Y-260547619D01*
X77096666Y-260642857D01*
X77144285Y-260833333D01*
X77144285Y-261071428D01*
X77096666Y-261261904D01*
X77049047Y-261357142D01*
X77001428Y-261404761D01*
X76906190Y-261452380D01*
X76810952Y-261452380D01*
X76715714Y-261404761D01*
X76668095Y-261357142D01*
X76620476Y-261261904D01*
X76572857Y-261071428D01*
X76572857Y-260833333D01*
X76620476Y-260642857D01*
X76668095Y-260547619D01*
X76715714Y-260500000D01*
X76810952Y-260452380D01*
%TO.C,D1*%
X64681904Y-256977380D02*
X64681904Y-255977380D01*
X64920000Y-255977380D01*
X65062857Y-256025000D01*
X65158095Y-256120238D01*
X65205714Y-256215476D01*
X65253333Y-256405952D01*
X65253333Y-256548809D01*
X65205714Y-256739285D01*
X65158095Y-256834523D01*
X65062857Y-256929761D01*
X64920000Y-256977380D01*
X64681904Y-256977380D01*
X66205714Y-256977380D02*
X65634285Y-256977380D01*
X65920000Y-256977380D02*
X65920000Y-255977380D01*
X65824761Y-256120238D01*
X65729523Y-256215476D01*
X65634285Y-256263095D01*
%TO.C,J1*%
X76516666Y-275457380D02*
X76516666Y-276171666D01*
X76469047Y-276314523D01*
X76373809Y-276409761D01*
X76230952Y-276457380D01*
X76135714Y-276457380D01*
X77516666Y-276457380D02*
X76945238Y-276457380D01*
X77230952Y-276457380D02*
X77230952Y-275457380D01*
X77135714Y-275600238D01*
X77040476Y-275695476D01*
X76945238Y-275743095D01*
D12*
%TO.C,J2*%
X78030000Y-273490000D02*
X75910000Y-273490000D01*
X77470000Y-271070000D02*
X78155000Y-271070000D01*
X75910000Y-273174493D02*
X75910000Y-273490000D01*
X78030000Y-273174493D02*
X78030000Y-273490000D01*
X78155000Y-271070000D02*
X78155000Y-271780000D01*
X75910000Y-271070000D02*
X75910000Y-271385507D01*
X75910000Y-272174493D02*
X75910000Y-272385507D01*
X76785000Y-271070000D02*
X76785000Y-271171724D01*
X76785000Y-271070000D02*
X75910000Y-271070000D01*
%TO.C,R1000*%
X76850000Y-258160000D02*
X73010000Y-258160000D01*
X76850000Y-260000000D02*
X73010000Y-260000000D01*
%TO.C,D1*%
X62860000Y-258940000D02*
X62860000Y-262030000D01*
X68410000Y-260485462D02*
G75*
G03*
X62860000Y-258940170I-2990000J462D01*
G01*
X62860000Y-262029830D02*
G75*
G03*
X68410000Y-260484538I2560000J1544830D01*
G01*
X67920000Y-260485000D02*
G75*
G03*
X67920000Y-260485000I-2500000J0D01*
G01*
%TO.C,J1*%
X80720000Y-282005000D02*
X80720000Y-282255000D01*
X72980000Y-277535000D02*
X72980000Y-279605000D01*
X72980000Y-277535000D02*
X73850000Y-277535000D01*
X78150000Y-277305000D02*
X77850000Y-277005000D01*
X72980000Y-282005000D02*
X72980000Y-282255000D01*
X77850000Y-277005000D02*
X78450000Y-277005000D01*
X78150000Y-277305000D02*
X78450000Y-277005000D01*
X80720000Y-277535000D02*
X80720000Y-279605000D01*
X79850000Y-277535000D02*
X80720000Y-277535000D01*
%TO.C,REF\u002A\u002A*%
G36*
X66213910Y-277772518D02*
G01*
X66292454Y-277772948D01*
X66349298Y-277774112D01*
X66388105Y-277776377D01*
X66412538Y-277780110D01*
X66426262Y-277785676D01*
X66432940Y-277793443D01*
X66436236Y-277803775D01*
X66436556Y-277805113D01*
X66441562Y-277829249D01*
X66450829Y-277876871D01*
X66463392Y-277942911D01*
X66478287Y-278022298D01*
X66494551Y-278109966D01*
X66495119Y-278113045D01*
X66511410Y-278198959D01*
X66526652Y-278274866D01*
X66539861Y-278336215D01*
X66550054Y-278378452D01*
X66556248Y-278397025D01*
X66556543Y-278397354D01*
X66574788Y-278406423D01*
X66612405Y-278421537D01*
X66661271Y-278439432D01*
X66661543Y-278439528D01*
X66723093Y-278462663D01*
X66795657Y-278492135D01*
X66864057Y-278521767D01*
X66867294Y-278523232D01*
X66978702Y-278573796D01*
X67225399Y-278405330D01*
X67301077Y-278353973D01*
X67369631Y-278308059D01*
X67427088Y-278270200D01*
X67469476Y-278243007D01*
X67492825Y-278229091D01*
X67495042Y-278228059D01*
X67512010Y-278232654D01*
X67543701Y-278254825D01*
X67591352Y-278295617D01*
X67656198Y-278356075D01*
X67722397Y-278420397D01*
X67786214Y-278483782D01*
X67843329Y-278541621D01*
X67890305Y-278590345D01*
X67923703Y-278626380D01*
X67940085Y-278646154D01*
X67940694Y-278647172D01*
X67942505Y-278660742D01*
X67935683Y-278682903D01*
X67918540Y-278716648D01*
X67889393Y-278764970D01*
X67846555Y-278830862D01*
X67789448Y-278915687D01*
X67738766Y-278990347D01*
X67693461Y-279057310D01*
X67656150Y-279112686D01*
X67629452Y-279152590D01*
X67615985Y-279173132D01*
X67615137Y-279174526D01*
X67616781Y-279194208D01*
X67629245Y-279232463D01*
X67650048Y-279282059D01*
X67657462Y-279297898D01*
X67689814Y-279368460D01*
X67724328Y-279448523D01*
X67752365Y-279517799D01*
X67772568Y-279569215D01*
X67788615Y-279608289D01*
X67797888Y-279628711D01*
X67799041Y-279630284D01*
X67816096Y-279632891D01*
X67856298Y-279640033D01*
X67914302Y-279650693D01*
X67984763Y-279663855D01*
X68062335Y-279678503D01*
X68141672Y-279693619D01*
X68217431Y-279708188D01*
X68284264Y-279721192D01*
X68336828Y-279731615D01*
X68369776Y-279738440D01*
X68377857Y-279740369D01*
X68386205Y-279745132D01*
X68392506Y-279755888D01*
X68397045Y-279776268D01*
X68400104Y-279809904D01*
X68401967Y-279860425D01*
X68402918Y-279931462D01*
X68403240Y-280026646D01*
X68403257Y-280065662D01*
X68403257Y-280382969D01*
X68327057Y-280398009D01*
X68284663Y-280406165D01*
X68221400Y-280418069D01*
X68144962Y-280432286D01*
X68063043Y-280447380D01*
X68040400Y-280451525D01*
X67964806Y-280466223D01*
X67898953Y-280480675D01*
X67848366Y-280493545D01*
X67818574Y-280503492D01*
X67813612Y-280506457D01*
X67801426Y-280527453D01*
X67783953Y-280568137D01*
X67764577Y-280620492D01*
X67760734Y-280631770D01*
X67735339Y-280701693D01*
X67703817Y-280780588D01*
X67672969Y-280851436D01*
X67672817Y-280851765D01*
X67621447Y-280962903D01*
X67790399Y-281211423D01*
X67959352Y-281459942D01*
X67742429Y-281677228D01*
X67676819Y-281741896D01*
X67616979Y-281798903D01*
X67566267Y-281845203D01*
X67528046Y-281877754D01*
X67505675Y-281893513D01*
X67502466Y-281894513D01*
X67483626Y-281886639D01*
X67445180Y-281864748D01*
X67391330Y-281831437D01*
X67326276Y-281789301D01*
X67255940Y-281742113D01*
X67184555Y-281693980D01*
X67120908Y-281652098D01*
X67069041Y-281619041D01*
X67032995Y-281597388D01*
X67016867Y-281589713D01*
X66997189Y-281596207D01*
X66959875Y-281613320D01*
X66912621Y-281637496D01*
X66907612Y-281640183D01*
X66843977Y-281672097D01*
X66800341Y-281687749D01*
X66773202Y-281687915D01*
X66759057Y-281673374D01*
X66758975Y-281673170D01*
X66751905Y-281655949D01*
X66735042Y-281615069D01*
X66709695Y-281553695D01*
X66677171Y-281474989D01*
X66638778Y-281382117D01*
X66595822Y-281278242D01*
X66554222Y-281177672D01*
X66508504Y-281066686D01*
X66466526Y-280963873D01*
X66429548Y-280872385D01*
X66398827Y-280795371D01*
X66375622Y-280735985D01*
X66361190Y-280697379D01*
X66356743Y-280682970D01*
X66367896Y-280666442D01*
X66397069Y-280640100D01*
X66435971Y-280611057D01*
X66546757Y-280519209D01*
X66633351Y-280413929D01*
X66694716Y-280297436D01*
X66729815Y-280171946D01*
X66737608Y-280039677D01*
X66731943Y-279978627D01*
X66701078Y-279851965D01*
X66647920Y-279740111D01*
X66575767Y-279644171D01*
X66487917Y-279565246D01*
X66387665Y-279504440D01*
X66278310Y-279462857D01*
X66163147Y-279441598D01*
X66045475Y-279441769D01*
X65928590Y-279464471D01*
X65815789Y-279510808D01*
X65710369Y-279581883D01*
X65666368Y-279622081D01*
X65581979Y-279725299D01*
X65523222Y-279838095D01*
X65489704Y-279957180D01*
X65481035Y-280079265D01*
X65496823Y-280201063D01*
X65536678Y-280319286D01*
X65600207Y-280430645D01*
X65687021Y-280531854D01*
X65784029Y-280611057D01*
X65824437Y-280641332D01*
X65852982Y-280667389D01*
X65863257Y-280682995D01*
X65857877Y-280700013D01*
X65842575Y-280740670D01*
X65818612Y-280801812D01*
X65787244Y-280880289D01*
X65749732Y-280972950D01*
X65707333Y-281076642D01*
X65665663Y-281177696D01*
X65619690Y-281288777D01*
X65577107Y-281391711D01*
X65539221Y-281483335D01*
X65507340Y-281560486D01*
X65482771Y-281620001D01*
X65466820Y-281658714D01*
X65460910Y-281673170D01*
X65446948Y-281687855D01*
X65419940Y-281687812D01*
X65376413Y-281672269D01*
X65312890Y-281640454D01*
X65312388Y-281640183D01*
X65264560Y-281615493D01*
X65225897Y-281597508D01*
X65204095Y-281589784D01*
X65203133Y-281589713D01*
X65186721Y-281597548D01*
X65150487Y-281619335D01*
X65098474Y-281652498D01*
X65034725Y-281694461D01*
X64964060Y-281742113D01*
X64892116Y-281790361D01*
X64827274Y-281832321D01*
X64773735Y-281865397D01*
X64735697Y-281886991D01*
X64717533Y-281894513D01*
X64700808Y-281884627D01*
X64667180Y-281856996D01*
X64620010Y-281814665D01*
X64562658Y-281760675D01*
X64498484Y-281698069D01*
X64477497Y-281677153D01*
X64260499Y-281459793D01*
X64425668Y-281217390D01*
X64475864Y-281142951D01*
X64519919Y-281076142D01*
X64555362Y-281020835D01*
X64579719Y-280980899D01*
X64590522Y-280960206D01*
X64590838Y-280958733D01*
X64585143Y-280939228D01*
X64569826Y-280899992D01*
X64547537Y-280847600D01*
X64531893Y-280812525D01*
X64502641Y-280745371D01*
X64475094Y-280677528D01*
X64453737Y-280620204D01*
X64447935Y-280602742D01*
X64431452Y-280556108D01*
X64415340Y-280520075D01*
X64406490Y-280506457D01*
X64386960Y-280498122D01*
X64344334Y-280486307D01*
X64284145Y-280472351D01*
X64211922Y-280457592D01*
X64179600Y-280451525D01*
X64097522Y-280436443D01*
X64018795Y-280421839D01*
X63951109Y-280409150D01*
X63902160Y-280399812D01*
X63892943Y-280398009D01*
X63816743Y-280382969D01*
X63816743Y-280065662D01*
X63816914Y-279961324D01*
X63817616Y-279882383D01*
X63819134Y-279825208D01*
X63821749Y-279786169D01*
X63825746Y-279761635D01*
X63831409Y-279747975D01*
X63839020Y-279741559D01*
X63842143Y-279740369D01*
X63860978Y-279736150D01*
X63902588Y-279727732D01*
X63961630Y-279716131D01*
X64032757Y-279702365D01*
X64110625Y-279687450D01*
X64189887Y-279672402D01*
X64265198Y-279658239D01*
X64331213Y-279645976D01*
X64382587Y-279636631D01*
X64413975Y-279631220D01*
X64420959Y-279630284D01*
X64427285Y-279617766D01*
X64441290Y-279584416D01*
X64460355Y-279536547D01*
X64467634Y-279517799D01*
X64496996Y-279445365D01*
X64531571Y-279365340D01*
X64562537Y-279297898D01*
X64585323Y-279246329D01*
X64600482Y-279203955D01*
X64605542Y-279178004D01*
X64604736Y-279174526D01*
X64594041Y-279158106D01*
X64569620Y-279121587D01*
X64534095Y-279068857D01*
X64490087Y-279003805D01*
X64440217Y-278930321D01*
X64430356Y-278915815D01*
X64372492Y-278829874D01*
X64329956Y-278764431D01*
X64301054Y-278716474D01*
X64284090Y-278682990D01*
X64277367Y-278660965D01*
X64279190Y-278647387D01*
X64279236Y-278647301D01*
X64293586Y-278629467D01*
X64325323Y-278594987D01*
X64371010Y-278547438D01*
X64427204Y-278490392D01*
X64490468Y-278427425D01*
X64497602Y-278420397D01*
X64577330Y-278343190D01*
X64638857Y-278286500D01*
X64683421Y-278249280D01*
X64712257Y-278230485D01*
X64724958Y-278228059D01*
X64743494Y-278238641D01*
X64781961Y-278263086D01*
X64836386Y-278298782D01*
X64902798Y-278343117D01*
X64977225Y-278393481D01*
X64994601Y-278405330D01*
X65241297Y-278573796D01*
X65352706Y-278523232D01*
X65420457Y-278493765D01*
X65493183Y-278464129D01*
X65555703Y-278440500D01*
X65558457Y-278439528D01*
X65607360Y-278421627D01*
X65645057Y-278406490D01*
X65663425Y-278397380D01*
X65663456Y-278397354D01*
X65669285Y-278380887D01*
X65679192Y-278340389D01*
X65692195Y-278280412D01*
X65707309Y-278205510D01*
X65723552Y-278120234D01*
X65724881Y-278113045D01*
X65741175Y-278025184D01*
X65756133Y-277945430D01*
X65768791Y-277878851D01*
X65778186Y-277830517D01*
X65783354Y-277805495D01*
X65783444Y-277805113D01*
X65786589Y-277794469D01*
X65792704Y-277786432D01*
X65805453Y-277780637D01*
X65828500Y-277776717D01*
X65865509Y-277774305D01*
X65920144Y-277773035D01*
X65996067Y-277772541D01*
X66096944Y-277772456D01*
X66110000Y-277772456D01*
X66213910Y-277772518D01*
G37*
D13*
X66213910Y-277772518D02*
X66292454Y-277772948D01*
X66349298Y-277774112D01*
X66388105Y-277776377D01*
X66412538Y-277780110D01*
X66426262Y-277785676D01*
X66432940Y-277793443D01*
X66436236Y-277803775D01*
X66436556Y-277805113D01*
X66441562Y-277829249D01*
X66450829Y-277876871D01*
X66463392Y-277942911D01*
X66478287Y-278022298D01*
X66494551Y-278109966D01*
X66495119Y-278113045D01*
X66511410Y-278198959D01*
X66526652Y-278274866D01*
X66539861Y-278336215D01*
X66550054Y-278378452D01*
X66556248Y-278397025D01*
X66556543Y-278397354D01*
X66574788Y-278406423D01*
X66612405Y-278421537D01*
X66661271Y-278439432D01*
X66661543Y-278439528D01*
X66723093Y-278462663D01*
X66795657Y-278492135D01*
X66864057Y-278521767D01*
X66867294Y-278523232D01*
X66978702Y-278573796D01*
X67225399Y-278405330D01*
X67301077Y-278353973D01*
X67369631Y-278308059D01*
X67427088Y-278270200D01*
X67469476Y-278243007D01*
X67492825Y-278229091D01*
X67495042Y-278228059D01*
X67512010Y-278232654D01*
X67543701Y-278254825D01*
X67591352Y-278295617D01*
X67656198Y-278356075D01*
X67722397Y-278420397D01*
X67786214Y-278483782D01*
X67843329Y-278541621D01*
X67890305Y-278590345D01*
X67923703Y-278626380D01*
X67940085Y-278646154D01*
X67940694Y-278647172D01*
X67942505Y-278660742D01*
X67935683Y-278682903D01*
X67918540Y-278716648D01*
X67889393Y-278764970D01*
X67846555Y-278830862D01*
X67789448Y-278915687D01*
X67738766Y-278990347D01*
X67693461Y-279057310D01*
X67656150Y-279112686D01*
X67629452Y-279152590D01*
X67615985Y-279173132D01*
X67615137Y-279174526D01*
X67616781Y-279194208D01*
X67629245Y-279232463D01*
X67650048Y-279282059D01*
X67657462Y-279297898D01*
X67689814Y-279368460D01*
X67724328Y-279448523D01*
X67752365Y-279517799D01*
X67772568Y-279569215D01*
X67788615Y-279608289D01*
X67797888Y-279628711D01*
X67799041Y-279630284D01*
X67816096Y-279632891D01*
X67856298Y-279640033D01*
X67914302Y-279650693D01*
X67984763Y-279663855D01*
X68062335Y-279678503D01*
X68141672Y-279693619D01*
X68217431Y-279708188D01*
X68284264Y-279721192D01*
X68336828Y-279731615D01*
X68369776Y-279738440D01*
X68377857Y-279740369D01*
X68386205Y-279745132D01*
X68392506Y-279755888D01*
X68397045Y-279776268D01*
X68400104Y-279809904D01*
X68401967Y-279860425D01*
X68402918Y-279931462D01*
X68403240Y-280026646D01*
X68403257Y-280065662D01*
X68403257Y-280382969D01*
X68327057Y-280398009D01*
X68284663Y-280406165D01*
X68221400Y-280418069D01*
X68144962Y-280432286D01*
X68063043Y-280447380D01*
X68040400Y-280451525D01*
X67964806Y-280466223D01*
X67898953Y-280480675D01*
X67848366Y-280493545D01*
X67818574Y-280503492D01*
X67813612Y-280506457D01*
X67801426Y-280527453D01*
X67783953Y-280568137D01*
X67764577Y-280620492D01*
X67760734Y-280631770D01*
X67735339Y-280701693D01*
X67703817Y-280780588D01*
X67672969Y-280851436D01*
X67672817Y-280851765D01*
X67621447Y-280962903D01*
X67790399Y-281211423D01*
X67959352Y-281459942D01*
X67742429Y-281677228D01*
X67676819Y-281741896D01*
X67616979Y-281798903D01*
X67566267Y-281845203D01*
X67528046Y-281877754D01*
X67505675Y-281893513D01*
X67502466Y-281894513D01*
X67483626Y-281886639D01*
X67445180Y-281864748D01*
X67391330Y-281831437D01*
X67326276Y-281789301D01*
X67255940Y-281742113D01*
X67184555Y-281693980D01*
X67120908Y-281652098D01*
X67069041Y-281619041D01*
X67032995Y-281597388D01*
X67016867Y-281589713D01*
X66997189Y-281596207D01*
X66959875Y-281613320D01*
X66912621Y-281637496D01*
X66907612Y-281640183D01*
X66843977Y-281672097D01*
X66800341Y-281687749D01*
X66773202Y-281687915D01*
X66759057Y-281673374D01*
X66758975Y-281673170D01*
X66751905Y-281655949D01*
X66735042Y-281615069D01*
X66709695Y-281553695D01*
X66677171Y-281474989D01*
X66638778Y-281382117D01*
X66595822Y-281278242D01*
X66554222Y-281177672D01*
X66508504Y-281066686D01*
X66466526Y-280963873D01*
X66429548Y-280872385D01*
X66398827Y-280795371D01*
X66375622Y-280735985D01*
X66361190Y-280697379D01*
X66356743Y-280682970D01*
X66367896Y-280666442D01*
X66397069Y-280640100D01*
X66435971Y-280611057D01*
X66546757Y-280519209D01*
X66633351Y-280413929D01*
X66694716Y-280297436D01*
X66729815Y-280171946D01*
X66737608Y-280039677D01*
X66731943Y-279978627D01*
X66701078Y-279851965D01*
X66647920Y-279740111D01*
X66575767Y-279644171D01*
X66487917Y-279565246D01*
X66387665Y-279504440D01*
X66278310Y-279462857D01*
X66163147Y-279441598D01*
X66045475Y-279441769D01*
X65928590Y-279464471D01*
X65815789Y-279510808D01*
X65710369Y-279581883D01*
X65666368Y-279622081D01*
X65581979Y-279725299D01*
X65523222Y-279838095D01*
X65489704Y-279957180D01*
X65481035Y-280079265D01*
X65496823Y-280201063D01*
X65536678Y-280319286D01*
X65600207Y-280430645D01*
X65687021Y-280531854D01*
X65784029Y-280611057D01*
X65824437Y-280641332D01*
X65852982Y-280667389D01*
X65863257Y-280682995D01*
X65857877Y-280700013D01*
X65842575Y-280740670D01*
X65818612Y-280801812D01*
X65787244Y-280880289D01*
X65749732Y-280972950D01*
X65707333Y-281076642D01*
X65665663Y-281177696D01*
X65619690Y-281288777D01*
X65577107Y-281391711D01*
X65539221Y-281483335D01*
X65507340Y-281560486D01*
X65482771Y-281620001D01*
X65466820Y-281658714D01*
X65460910Y-281673170D01*
X65446948Y-281687855D01*
X65419940Y-281687812D01*
X65376413Y-281672269D01*
X65312890Y-281640454D01*
X65312388Y-281640183D01*
X65264560Y-281615493D01*
X65225897Y-281597508D01*
X65204095Y-281589784D01*
X65203133Y-281589713D01*
X65186721Y-281597548D01*
X65150487Y-281619335D01*
X65098474Y-281652498D01*
X65034725Y-281694461D01*
X64964060Y-281742113D01*
X64892116Y-281790361D01*
X64827274Y-281832321D01*
X64773735Y-281865397D01*
X64735697Y-281886991D01*
X64717533Y-281894513D01*
X64700808Y-281884627D01*
X64667180Y-281856996D01*
X64620010Y-281814665D01*
X64562658Y-281760675D01*
X64498484Y-281698069D01*
X64477497Y-281677153D01*
X64260499Y-281459793D01*
X64425668Y-281217390D01*
X64475864Y-281142951D01*
X64519919Y-281076142D01*
X64555362Y-281020835D01*
X64579719Y-280980899D01*
X64590522Y-280960206D01*
X64590838Y-280958733D01*
X64585143Y-280939228D01*
X64569826Y-280899992D01*
X64547537Y-280847600D01*
X64531893Y-280812525D01*
X64502641Y-280745371D01*
X64475094Y-280677528D01*
X64453737Y-280620204D01*
X64447935Y-280602742D01*
X64431452Y-280556108D01*
X64415340Y-280520075D01*
X64406490Y-280506457D01*
X64386960Y-280498122D01*
X64344334Y-280486307D01*
X64284145Y-280472351D01*
X64211922Y-280457592D01*
X64179600Y-280451525D01*
X64097522Y-280436443D01*
X64018795Y-280421839D01*
X63951109Y-280409150D01*
X63902160Y-280399812D01*
X63892943Y-280398009D01*
X63816743Y-280382969D01*
X63816743Y-280065662D01*
X63816914Y-279961324D01*
X63817616Y-279882383D01*
X63819134Y-279825208D01*
X63821749Y-279786169D01*
X63825746Y-279761635D01*
X63831409Y-279747975D01*
X63839020Y-279741559D01*
X63842143Y-279740369D01*
X63860978Y-279736150D01*
X63902588Y-279727732D01*
X63961630Y-279716131D01*
X64032757Y-279702365D01*
X64110625Y-279687450D01*
X64189887Y-279672402D01*
X64265198Y-279658239D01*
X64331213Y-279645976D01*
X64382587Y-279636631D01*
X64413975Y-279631220D01*
X64420959Y-279630284D01*
X64427285Y-279617766D01*
X64441290Y-279584416D01*
X64460355Y-279536547D01*
X64467634Y-279517799D01*
X64496996Y-279445365D01*
X64531571Y-279365340D01*
X64562537Y-279297898D01*
X64585323Y-279246329D01*
X64600482Y-279203955D01*
X64605542Y-279178004D01*
X64604736Y-279174526D01*
X64594041Y-279158106D01*
X64569620Y-279121587D01*
X64534095Y-279068857D01*
X64490087Y-279003805D01*
X64440217Y-278930321D01*
X64430356Y-278915815D01*
X64372492Y-278829874D01*
X64329956Y-278764431D01*
X64301054Y-278716474D01*
X64284090Y-278682990D01*
X64277367Y-278660965D01*
X64279190Y-278647387D01*
X64279236Y-278647301D01*
X64293586Y-278629467D01*
X64325323Y-278594987D01*
X64371010Y-278547438D01*
X64427204Y-278490392D01*
X64490468Y-278427425D01*
X64497602Y-278420397D01*
X64577330Y-278343190D01*
X64638857Y-278286500D01*
X64683421Y-278249280D01*
X64712257Y-278230485D01*
X64724958Y-278228059D01*
X64743494Y-278238641D01*
X64781961Y-278263086D01*
X64836386Y-278298782D01*
X64902798Y-278343117D01*
X64977225Y-278393481D01*
X64994601Y-278405330D01*
X65241297Y-278573796D01*
X65352706Y-278523232D01*
X65420457Y-278493765D01*
X65493183Y-278464129D01*
X65555703Y-278440500D01*
X65558457Y-278439528D01*
X65607360Y-278421627D01*
X65645057Y-278406490D01*
X65663425Y-278397380D01*
X65663456Y-278397354D01*
X65669285Y-278380887D01*
X65679192Y-278340389D01*
X65692195Y-278280412D01*
X65707309Y-278205510D01*
X65723552Y-278120234D01*
X65724881Y-278113045D01*
X65741175Y-278025184D01*
X65756133Y-277945430D01*
X65768791Y-277878851D01*
X65778186Y-277830517D01*
X65783354Y-277805495D01*
X65783444Y-277805113D01*
X65786589Y-277794469D01*
X65792704Y-277786432D01*
X65805453Y-277780637D01*
X65828500Y-277776717D01*
X65865509Y-277774305D01*
X65920144Y-277773035D01*
X65996067Y-277772541D01*
X66096944Y-277772456D01*
X66110000Y-277772456D01*
X66213910Y-277772518D01*
G36*
X62847096Y-282638329D02*
G01*
X62852068Y-282602119D01*
X62860713Y-282575469D01*
X62874005Y-282551892D01*
X62876943Y-282547508D01*
X62926313Y-282488419D01*
X62980109Y-282454117D01*
X63045602Y-282440501D01*
X63067842Y-282439835D01*
X63151115Y-282452132D01*
X63219145Y-282487903D01*
X63269351Y-282545471D01*
X63287185Y-282582482D01*
X63301063Y-282638052D01*
X63308167Y-282708266D01*
X63308840Y-282784897D01*
X63303427Y-282859722D01*
X63292270Y-282924512D01*
X63275714Y-282971043D01*
X63270626Y-282979057D01*
X63210355Y-283038877D01*
X63138769Y-283074705D01*
X63061092Y-283085190D01*
X62982548Y-283068980D01*
X62960689Y-283059262D01*
X62918122Y-283029313D01*
X62880763Y-282989603D01*
X62877232Y-282984567D01*
X62862881Y-282960294D01*
X62853394Y-282934348D01*
X62847790Y-282900192D01*
X62845086Y-282851289D01*
X62844299Y-282781105D01*
X62844286Y-282765370D01*
X62844322Y-282760362D01*
X62989429Y-282760362D01*
X62990273Y-282826600D01*
X62993596Y-282870556D01*
X63000583Y-282898949D01*
X63012416Y-282918495D01*
X63018457Y-282925027D01*
X63053186Y-282949850D01*
X63086903Y-282948718D01*
X63120995Y-282927186D01*
X63141329Y-282904199D01*
X63153371Y-282870648D01*
X63160134Y-282817739D01*
X63160598Y-282811569D01*
X63161752Y-282715683D01*
X63149688Y-282644469D01*
X63124570Y-282598364D01*
X63086560Y-282577805D01*
X63072992Y-282576684D01*
X63037364Y-282582322D01*
X63012994Y-282601856D01*
X62998093Y-282639212D01*
X62990875Y-282698320D01*
X62989429Y-282760362D01*
X62844322Y-282760362D01*
X62844826Y-282690583D01*
X62847096Y-282638329D01*
G37*
X62847096Y-282638329D02*
X62852068Y-282602119D01*
X62860713Y-282575469D01*
X62874005Y-282551892D01*
X62876943Y-282547508D01*
X62926313Y-282488419D01*
X62980109Y-282454117D01*
X63045602Y-282440501D01*
X63067842Y-282439835D01*
X63151115Y-282452132D01*
X63219145Y-282487903D01*
X63269351Y-282545471D01*
X63287185Y-282582482D01*
X63301063Y-282638052D01*
X63308167Y-282708266D01*
X63308840Y-282784897D01*
X63303427Y-282859722D01*
X63292270Y-282924512D01*
X63275714Y-282971043D01*
X63270626Y-282979057D01*
X63210355Y-283038877D01*
X63138769Y-283074705D01*
X63061092Y-283085190D01*
X62982548Y-283068980D01*
X62960689Y-283059262D01*
X62918122Y-283029313D01*
X62880763Y-282989603D01*
X62877232Y-282984567D01*
X62862881Y-282960294D01*
X62853394Y-282934348D01*
X62847790Y-282900192D01*
X62845086Y-282851289D01*
X62844299Y-282781105D01*
X62844286Y-282765370D01*
X62844322Y-282760362D01*
X62989429Y-282760362D01*
X62990273Y-282826600D01*
X62993596Y-282870556D01*
X63000583Y-282898949D01*
X63012416Y-282918495D01*
X63018457Y-282925027D01*
X63053186Y-282949850D01*
X63086903Y-282948718D01*
X63120995Y-282927186D01*
X63141329Y-282904199D01*
X63153371Y-282870648D01*
X63160134Y-282817739D01*
X63160598Y-282811569D01*
X63161752Y-282715683D01*
X63149688Y-282644469D01*
X63124570Y-282598364D01*
X63086560Y-282577805D01*
X63072992Y-282576684D01*
X63037364Y-282582322D01*
X63012994Y-282601856D01*
X62998093Y-282639212D01*
X62990875Y-282698320D01*
X62989429Y-282760362D01*
X62844322Y-282760362D01*
X62844826Y-282690583D01*
X62847096Y-282638329D01*
G36*
X68978196Y-282625554D02*
G01*
X68991884Y-282576865D01*
X69014096Y-282541019D01*
X69046574Y-282512683D01*
X69060733Y-282503525D01*
X69125053Y-282479677D01*
X69195473Y-282478176D01*
X69263595Y-282497136D01*
X69321021Y-282534667D01*
X69348719Y-282568266D01*
X69370662Y-282629234D01*
X69372405Y-282677478D01*
X69368457Y-282741986D01*
X69219686Y-282807104D01*
X69147349Y-282840372D01*
X69100084Y-282867134D01*
X69075507Y-282890314D01*
X69071237Y-282912837D01*
X69084889Y-282937625D01*
X69099943Y-282954056D01*
X69143746Y-282980405D01*
X69191389Y-282982251D01*
X69235145Y-282961716D01*
X69267289Y-282920922D01*
X69273038Y-282906517D01*
X69300576Y-282861526D01*
X69332258Y-282842352D01*
X69375714Y-282825949D01*
X69375714Y-282888136D01*
X69371872Y-282930453D01*
X69356823Y-282966139D01*
X69325280Y-283007113D01*
X69320592Y-283012437D01*
X69285506Y-283048890D01*
X69255347Y-283068453D01*
X69217615Y-283077453D01*
X69186335Y-283080400D01*
X69130385Y-283081135D01*
X69090555Y-283071830D01*
X69065708Y-283058016D01*
X69026656Y-283027637D01*
X68999625Y-282994783D01*
X68982517Y-282953464D01*
X68973238Y-282897691D01*
X68969693Y-282821475D01*
X68969410Y-282782792D01*
X68970372Y-282736417D01*
X69058007Y-282736417D01*
X69059023Y-282761296D01*
X69061556Y-282765370D01*
X69078274Y-282759835D01*
X69114249Y-282745187D01*
X69162331Y-282724360D01*
X69172386Y-282719884D01*
X69233152Y-282688984D01*
X69266632Y-282661827D01*
X69273990Y-282636390D01*
X69256391Y-282610651D01*
X69241856Y-282599279D01*
X69189410Y-282576534D01*
X69140322Y-282580292D01*
X69099227Y-282608054D01*
X69070758Y-282657322D01*
X69061631Y-282696427D01*
X69058007Y-282736417D01*
X68970372Y-282736417D01*
X68971285Y-282692419D01*
X68978196Y-282625554D01*
G37*
X68978196Y-282625554D02*
X68991884Y-282576865D01*
X69014096Y-282541019D01*
X69046574Y-282512683D01*
X69060733Y-282503525D01*
X69125053Y-282479677D01*
X69195473Y-282478176D01*
X69263595Y-282497136D01*
X69321021Y-282534667D01*
X69348719Y-282568266D01*
X69370662Y-282629234D01*
X69372405Y-282677478D01*
X69368457Y-282741986D01*
X69219686Y-282807104D01*
X69147349Y-282840372D01*
X69100084Y-282867134D01*
X69075507Y-282890314D01*
X69071237Y-282912837D01*
X69084889Y-282937625D01*
X69099943Y-282954056D01*
X69143746Y-282980405D01*
X69191389Y-282982251D01*
X69235145Y-282961716D01*
X69267289Y-282920922D01*
X69273038Y-282906517D01*
X69300576Y-282861526D01*
X69332258Y-282842352D01*
X69375714Y-282825949D01*
X69375714Y-282888136D01*
X69371872Y-282930453D01*
X69356823Y-282966139D01*
X69325280Y-283007113D01*
X69320592Y-283012437D01*
X69285506Y-283048890D01*
X69255347Y-283068453D01*
X69217615Y-283077453D01*
X69186335Y-283080400D01*
X69130385Y-283081135D01*
X69090555Y-283071830D01*
X69065708Y-283058016D01*
X69026656Y-283027637D01*
X68999625Y-282994783D01*
X68982517Y-282953464D01*
X68973238Y-282897691D01*
X68969693Y-282821475D01*
X68969410Y-282782792D01*
X68970372Y-282736417D01*
X69058007Y-282736417D01*
X69059023Y-282761296D01*
X69061556Y-282765370D01*
X69078274Y-282759835D01*
X69114249Y-282745187D01*
X69162331Y-282724360D01*
X69172386Y-282719884D01*
X69233152Y-282688984D01*
X69266632Y-282661827D01*
X69273990Y-282636390D01*
X69256391Y-282610651D01*
X69241856Y-282599279D01*
X69189410Y-282576534D01*
X69140322Y-282580292D01*
X69099227Y-282608054D01*
X69070758Y-282657322D01*
X69061631Y-282696427D01*
X69058007Y-282736417D01*
X68970372Y-282736417D01*
X68971285Y-282692419D01*
X68978196Y-282625554D01*
G36*
X63981550Y-282566382D02*
G01*
X64015456Y-282517472D01*
X64076653Y-282468048D01*
X64144063Y-282443529D01*
X64212880Y-282441967D01*
X64278303Y-282461409D01*
X64335527Y-282499905D01*
X64379749Y-282555505D01*
X64406167Y-282626256D01*
X64411510Y-282678332D01*
X64410903Y-282700063D01*
X64405822Y-282716701D01*
X64391855Y-282731607D01*
X64364589Y-282748143D01*
X64319612Y-282769668D01*
X64252511Y-282799544D01*
X64252171Y-282799694D01*
X64190407Y-282827983D01*
X64139759Y-282853103D01*
X64105404Y-282872349D01*
X64092518Y-282883018D01*
X64092514Y-282883104D01*
X64103872Y-282906336D01*
X64130431Y-282931944D01*
X64160923Y-282950391D01*
X64176370Y-282954056D01*
X64218515Y-282941382D01*
X64254808Y-282909641D01*
X64272517Y-282874742D01*
X64289552Y-282849015D01*
X64322922Y-282819716D01*
X64362149Y-282794405D01*
X64396756Y-282780641D01*
X64403993Y-282779884D01*
X64412139Y-282792330D01*
X64412630Y-282824142D01*
X64406643Y-282867036D01*
X64395357Y-282912728D01*
X64379950Y-282952931D01*
X64379171Y-282954492D01*
X64332804Y-283019232D01*
X64272711Y-283063267D01*
X64204465Y-283084881D01*
X64133638Y-283082355D01*
X64065804Y-283053974D01*
X64062788Y-283051978D01*
X64009427Y-283003618D01*
X63974340Y-282940522D01*
X63954922Y-282857557D01*
X63952316Y-282834248D01*
X63947701Y-282724225D01*
X63953233Y-282672918D01*
X64092514Y-282672918D01*
X64094324Y-282704923D01*
X64104222Y-282714263D01*
X64128898Y-282707275D01*
X64167795Y-282690757D01*
X64211275Y-282670051D01*
X64212356Y-282669503D01*
X64249209Y-282650119D01*
X64264000Y-282637183D01*
X64260353Y-282623621D01*
X64244995Y-282605802D01*
X64205923Y-282580015D01*
X64163846Y-282578120D01*
X64126103Y-282596887D01*
X64100034Y-282633085D01*
X64092514Y-282672918D01*
X63953233Y-282672918D01*
X63957194Y-282636197D01*
X63981550Y-282566382D01*
G37*
X63981550Y-282566382D02*
X64015456Y-282517472D01*
X64076653Y-282468048D01*
X64144063Y-282443529D01*
X64212880Y-282441967D01*
X64278303Y-282461409D01*
X64335527Y-282499905D01*
X64379749Y-282555505D01*
X64406167Y-282626256D01*
X64411510Y-282678332D01*
X64410903Y-282700063D01*
X64405822Y-282716701D01*
X64391855Y-282731607D01*
X64364589Y-282748143D01*
X64319612Y-282769668D01*
X64252511Y-282799544D01*
X64252171Y-282799694D01*
X64190407Y-282827983D01*
X64139759Y-282853103D01*
X64105404Y-282872349D01*
X64092518Y-282883018D01*
X64092514Y-282883104D01*
X64103872Y-282906336D01*
X64130431Y-282931944D01*
X64160923Y-282950391D01*
X64176370Y-282954056D01*
X64218515Y-282941382D01*
X64254808Y-282909641D01*
X64272517Y-282874742D01*
X64289552Y-282849015D01*
X64322922Y-282819716D01*
X64362149Y-282794405D01*
X64396756Y-282780641D01*
X64403993Y-282779884D01*
X64412139Y-282792330D01*
X64412630Y-282824142D01*
X64406643Y-282867036D01*
X64395357Y-282912728D01*
X64379950Y-282952931D01*
X64379171Y-282954492D01*
X64332804Y-283019232D01*
X64272711Y-283063267D01*
X64204465Y-283084881D01*
X64133638Y-283082355D01*
X64065804Y-283053974D01*
X64062788Y-283051978D01*
X64009427Y-283003618D01*
X63974340Y-282940522D01*
X63954922Y-282857557D01*
X63952316Y-282834248D01*
X63947701Y-282724225D01*
X63953233Y-282672918D01*
X64092514Y-282672918D01*
X64094324Y-282704923D01*
X64104222Y-282714263D01*
X64128898Y-282707275D01*
X64167795Y-282690757D01*
X64211275Y-282670051D01*
X64212356Y-282669503D01*
X64249209Y-282650119D01*
X64264000Y-282637183D01*
X64260353Y-282623621D01*
X64244995Y-282605802D01*
X64205923Y-282580015D01*
X64163846Y-282578120D01*
X64126103Y-282596887D01*
X64100034Y-282633085D01*
X64092514Y-282672918D01*
X63953233Y-282672918D01*
X63957194Y-282636197D01*
X63981550Y-282566382D01*
G36*
X66149744Y-282481138D02*
G01*
X66206616Y-282502257D01*
X66207267Y-282502663D01*
X66242440Y-282528550D01*
X66268407Y-282558803D01*
X66286670Y-282598228D01*
X66298732Y-282651632D01*
X66306096Y-282723821D01*
X66310264Y-282819602D01*
X66310629Y-282833248D01*
X66315876Y-283039012D01*
X66271716Y-283061848D01*
X66239763Y-283077280D01*
X66220470Y-283084593D01*
X66219578Y-283084684D01*
X66216239Y-283071192D01*
X66213587Y-283034796D01*
X66211956Y-282981622D01*
X66211600Y-282938563D01*
X66211592Y-282868811D01*
X66208403Y-282825007D01*
X66197288Y-282804114D01*
X66173501Y-282803095D01*
X66132296Y-282818911D01*
X66070086Y-282847985D01*
X66024341Y-282872133D01*
X66000813Y-282893083D01*
X65993896Y-282915917D01*
X65993886Y-282917047D01*
X66005299Y-282956382D01*
X66039092Y-282977632D01*
X66090809Y-282980709D01*
X66128061Y-282980176D01*
X66147703Y-282990905D01*
X66159952Y-283016675D01*
X66167002Y-283049507D01*
X66156842Y-283068136D01*
X66153017Y-283070802D01*
X66117001Y-283081510D01*
X66066566Y-283083026D01*
X66014626Y-283075929D01*
X65977822Y-283062958D01*
X65926938Y-283019755D01*
X65898014Y-282959616D01*
X65892286Y-282912632D01*
X65896657Y-282870252D01*
X65912475Y-282835658D01*
X65943797Y-282804933D01*
X65994678Y-282774160D01*
X66069176Y-282739422D01*
X66073714Y-282737458D01*
X66140821Y-282706457D01*
X66182232Y-282681032D01*
X66199981Y-282658184D01*
X66196107Y-282634915D01*
X66172643Y-282608226D01*
X66165627Y-282602084D01*
X66118630Y-282578270D01*
X66069933Y-282579273D01*
X66027522Y-282602621D01*
X65999384Y-282645845D01*
X65996769Y-282654330D01*
X65971308Y-282695478D01*
X65939001Y-282715298D01*
X65892286Y-282734940D01*
X65892286Y-282684120D01*
X65906496Y-282610252D01*
X65948675Y-282542497D01*
X65970624Y-282519831D01*
X66020517Y-282490739D01*
X66083967Y-282477570D01*
X66149744Y-282481138D01*
G37*
X66149744Y-282481138D02*
X66206616Y-282502257D01*
X66207267Y-282502663D01*
X66242440Y-282528550D01*
X66268407Y-282558803D01*
X66286670Y-282598228D01*
X66298732Y-282651632D01*
X66306096Y-282723821D01*
X66310264Y-282819602D01*
X66310629Y-282833248D01*
X66315876Y-283039012D01*
X66271716Y-283061848D01*
X66239763Y-283077280D01*
X66220470Y-283084593D01*
X66219578Y-283084684D01*
X66216239Y-283071192D01*
X66213587Y-283034796D01*
X66211956Y-282981622D01*
X66211600Y-282938563D01*
X66211592Y-282868811D01*
X66208403Y-282825007D01*
X66197288Y-282804114D01*
X66173501Y-282803095D01*
X66132296Y-282818911D01*
X66070086Y-282847985D01*
X66024341Y-282872133D01*
X66000813Y-282893083D01*
X65993896Y-282915917D01*
X65993886Y-282917047D01*
X66005299Y-282956382D01*
X66039092Y-282977632D01*
X66090809Y-282980709D01*
X66128061Y-282980176D01*
X66147703Y-282990905D01*
X66159952Y-283016675D01*
X66167002Y-283049507D01*
X66156842Y-283068136D01*
X66153017Y-283070802D01*
X66117001Y-283081510D01*
X66066566Y-283083026D01*
X66014626Y-283075929D01*
X65977822Y-283062958D01*
X65926938Y-283019755D01*
X65898014Y-282959616D01*
X65892286Y-282912632D01*
X65896657Y-282870252D01*
X65912475Y-282835658D01*
X65943797Y-282804933D01*
X65994678Y-282774160D01*
X66069176Y-282739422D01*
X66073714Y-282737458D01*
X66140821Y-282706457D01*
X66182232Y-282681032D01*
X66199981Y-282658184D01*
X66196107Y-282634915D01*
X66172643Y-282608226D01*
X66165627Y-282602084D01*
X66118630Y-282578270D01*
X66069933Y-282579273D01*
X66027522Y-282602621D01*
X65999384Y-282645845D01*
X65996769Y-282654330D01*
X65971308Y-282695478D01*
X65939001Y-282715298D01*
X65892286Y-282734940D01*
X65892286Y-282684120D01*
X65906496Y-282610252D01*
X65948675Y-282542497D01*
X65970624Y-282519831D01*
X66020517Y-282490739D01*
X66083967Y-282477570D01*
X66149744Y-282481138D01*
G36*
X63403677Y-282680503D02*
G01*
X63406450Y-282633128D01*
X63410388Y-282599460D01*
X63415849Y-282575668D01*
X63423192Y-282557923D01*
X63432777Y-282542394D01*
X63436887Y-282536551D01*
X63491405Y-282481355D01*
X63560336Y-282450060D01*
X63640072Y-282441335D01*
X63709744Y-282450088D01*
X63765201Y-282477738D01*
X63814148Y-282528650D01*
X63827629Y-282547508D01*
X63842314Y-282572185D01*
X63851842Y-282598986D01*
X63857293Y-282634757D01*
X63859747Y-282686339D01*
X63860286Y-282754437D01*
X63857852Y-282847758D01*
X63849394Y-282917827D01*
X63833174Y-282970101D01*
X63807454Y-283010039D01*
X63770497Y-283043099D01*
X63767782Y-283045056D01*
X63731360Y-283065078D01*
X63687502Y-283074985D01*
X63631724Y-283077427D01*
X63541048Y-283077427D01*
X63541010Y-283165453D01*
X63540166Y-283214478D01*
X63535024Y-283243235D01*
X63521587Y-283260481D01*
X63495858Y-283274978D01*
X63489679Y-283277939D01*
X63460764Y-283291818D01*
X63438376Y-283300584D01*
X63421729Y-283301341D01*
X63410036Y-283291193D01*
X63402510Y-283267243D01*
X63398366Y-283226596D01*
X63396815Y-283166356D01*
X63397071Y-283083625D01*
X63398349Y-282975509D01*
X63398748Y-282943170D01*
X63400185Y-282831694D01*
X63401472Y-282758773D01*
X63540971Y-282758773D01*
X63541755Y-282820669D01*
X63545240Y-282861167D01*
X63553124Y-282887878D01*
X63567105Y-282908414D01*
X63576597Y-282918430D01*
X63615404Y-282947737D01*
X63649763Y-282950122D01*
X63685216Y-282925920D01*
X63686114Y-282925027D01*
X63700539Y-282906323D01*
X63709313Y-282880902D01*
X63713739Y-282841754D01*
X63715118Y-282781867D01*
X63715143Y-282768600D01*
X63711812Y-282686071D01*
X63700969Y-282628861D01*
X63681340Y-282593936D01*
X63651650Y-282578264D01*
X63634491Y-282576684D01*
X63593766Y-282584096D01*
X63565832Y-282608500D01*
X63549017Y-282653150D01*
X63541650Y-282721300D01*
X63540971Y-282758773D01*
X63401472Y-282758773D01*
X63401708Y-282745415D01*
X63403677Y-282680503D01*
G37*
X63403677Y-282680503D02*
X63406450Y-282633128D01*
X63410388Y-282599460D01*
X63415849Y-282575668D01*
X63423192Y-282557923D01*
X63432777Y-282542394D01*
X63436887Y-282536551D01*
X63491405Y-282481355D01*
X63560336Y-282450060D01*
X63640072Y-282441335D01*
X63709744Y-282450088D01*
X63765201Y-282477738D01*
X63814148Y-282528650D01*
X63827629Y-282547508D01*
X63842314Y-282572185D01*
X63851842Y-282598986D01*
X63857293Y-282634757D01*
X63859747Y-282686339D01*
X63860286Y-282754437D01*
X63857852Y-282847758D01*
X63849394Y-282917827D01*
X63833174Y-282970101D01*
X63807454Y-283010039D01*
X63770497Y-283043099D01*
X63767782Y-283045056D01*
X63731360Y-283065078D01*
X63687502Y-283074985D01*
X63631724Y-283077427D01*
X63541048Y-283077427D01*
X63541010Y-283165453D01*
X63540166Y-283214478D01*
X63535024Y-283243235D01*
X63521587Y-283260481D01*
X63495858Y-283274978D01*
X63489679Y-283277939D01*
X63460764Y-283291818D01*
X63438376Y-283300584D01*
X63421729Y-283301341D01*
X63410036Y-283291193D01*
X63402510Y-283267243D01*
X63398366Y-283226596D01*
X63396815Y-283166356D01*
X63397071Y-283083625D01*
X63398349Y-282975509D01*
X63398748Y-282943170D01*
X63400185Y-282831694D01*
X63401472Y-282758773D01*
X63540971Y-282758773D01*
X63541755Y-282820669D01*
X63545240Y-282861167D01*
X63553124Y-282887878D01*
X63567105Y-282908414D01*
X63576597Y-282918430D01*
X63615404Y-282947737D01*
X63649763Y-282950122D01*
X63685216Y-282925920D01*
X63686114Y-282925027D01*
X63700539Y-282906323D01*
X63709313Y-282880902D01*
X63713739Y-282841754D01*
X63715118Y-282781867D01*
X63715143Y-282768600D01*
X63711812Y-282686071D01*
X63700969Y-282628861D01*
X63681340Y-282593936D01*
X63651650Y-282578264D01*
X63634491Y-282576684D01*
X63593766Y-282584096D01*
X63565832Y-282608500D01*
X63549017Y-282653150D01*
X63541650Y-282721300D01*
X63540971Y-282758773D01*
X63401472Y-282758773D01*
X63401708Y-282745415D01*
X63403677Y-282680503D01*
G36*
X66894726Y-282620256D02*
G01*
X66917135Y-282568770D01*
X66952124Y-282528613D01*
X66979375Y-282508031D01*
X67028907Y-282485795D01*
X67086316Y-282475474D01*
X67139682Y-282478237D01*
X67169543Y-282489382D01*
X67181261Y-282492553D01*
X67189037Y-282480727D01*
X67194465Y-282449036D01*
X67198571Y-282400763D01*
X67203067Y-282346999D01*
X67209313Y-282314652D01*
X67220676Y-282296155D01*
X67240528Y-282283940D01*
X67253000Y-282278532D01*
X67300171Y-282258771D01*
X67300117Y-282595528D01*
X67299933Y-282704007D01*
X67299219Y-282787457D01*
X67297675Y-282849874D01*
X67295001Y-282895255D01*
X67290894Y-282927599D01*
X67285055Y-282950903D01*
X67277182Y-282969165D01*
X67271221Y-282979588D01*
X67221855Y-283036115D01*
X67159264Y-283071547D01*
X67090013Y-283084260D01*
X67020668Y-283072633D01*
X66979375Y-283051738D01*
X66936025Y-283015592D01*
X66906481Y-282971446D01*
X66888655Y-282913632D01*
X66880463Y-282836483D01*
X66879302Y-282779884D01*
X66879458Y-282775817D01*
X66980857Y-282775817D01*
X66981476Y-282840720D01*
X66984314Y-282883684D01*
X66990840Y-282911792D01*
X67002523Y-282932123D01*
X67016483Y-282947458D01*
X67063365Y-282977060D01*
X67113701Y-282979589D01*
X67161276Y-282954875D01*
X67164979Y-282951526D01*
X67180783Y-282934105D01*
X67190693Y-282913379D01*
X67196058Y-282882532D01*
X67198228Y-282834747D01*
X67198571Y-282781918D01*
X67197827Y-282715551D01*
X67194748Y-282671276D01*
X67188061Y-282642179D01*
X67176496Y-282621343D01*
X67167013Y-282610277D01*
X67122960Y-282582368D01*
X67072224Y-282579013D01*
X67023796Y-282600329D01*
X67014450Y-282608243D01*
X66998540Y-282625817D01*
X66988610Y-282646757D01*
X66983278Y-282677952D01*
X66981163Y-282726292D01*
X66980857Y-282775817D01*
X66879458Y-282775817D01*
X66882810Y-282688738D01*
X66894726Y-282620256D01*
G37*
X66894726Y-282620256D02*
X66917135Y-282568770D01*
X66952124Y-282528613D01*
X66979375Y-282508031D01*
X67028907Y-282485795D01*
X67086316Y-282475474D01*
X67139682Y-282478237D01*
X67169543Y-282489382D01*
X67181261Y-282492553D01*
X67189037Y-282480727D01*
X67194465Y-282449036D01*
X67198571Y-282400763D01*
X67203067Y-282346999D01*
X67209313Y-282314652D01*
X67220676Y-282296155D01*
X67240528Y-282283940D01*
X67253000Y-282278532D01*
X67300171Y-282258771D01*
X67300117Y-282595528D01*
X67299933Y-282704007D01*
X67299219Y-282787457D01*
X67297675Y-282849874D01*
X67295001Y-282895255D01*
X67290894Y-282927599D01*
X67285055Y-282950903D01*
X67277182Y-282969165D01*
X67271221Y-282979588D01*
X67221855Y-283036115D01*
X67159264Y-283071547D01*
X67090013Y-283084260D01*
X67020668Y-283072633D01*
X66979375Y-283051738D01*
X66936025Y-283015592D01*
X66906481Y-282971446D01*
X66888655Y-282913632D01*
X66880463Y-282836483D01*
X66879302Y-282779884D01*
X66879458Y-282775817D01*
X66980857Y-282775817D01*
X66981476Y-282840720D01*
X66984314Y-282883684D01*
X66990840Y-282911792D01*
X67002523Y-282932123D01*
X67016483Y-282947458D01*
X67063365Y-282977060D01*
X67113701Y-282979589D01*
X67161276Y-282954875D01*
X67164979Y-282951526D01*
X67180783Y-282934105D01*
X67190693Y-282913379D01*
X67196058Y-282882532D01*
X67198228Y-282834747D01*
X67198571Y-282781918D01*
X67197827Y-282715551D01*
X67194748Y-282671276D01*
X67188061Y-282642179D01*
X67176496Y-282621343D01*
X67167013Y-282610277D01*
X67122960Y-282582368D01*
X67072224Y-282579013D01*
X67023796Y-282600329D01*
X67014450Y-282608243D01*
X66998540Y-282625817D01*
X66988610Y-282646757D01*
X66983278Y-282677952D01*
X66981163Y-282726292D01*
X66980857Y-282775817D01*
X66879458Y-282775817D01*
X66882810Y-282688738D01*
X66894726Y-282620256D01*
G36*
X65485886Y-282381459D02*
G01*
X65490139Y-282440783D01*
X65495025Y-282475742D01*
X65501795Y-282490990D01*
X65511702Y-282491185D01*
X65514914Y-282489365D01*
X65557644Y-282476185D01*
X65613227Y-282476955D01*
X65669737Y-282490503D01*
X65705082Y-282508031D01*
X65741321Y-282536031D01*
X65767813Y-282567719D01*
X65785999Y-282607983D01*
X65797322Y-282661713D01*
X65803222Y-282733796D01*
X65805143Y-282829121D01*
X65805177Y-282847407D01*
X65805200Y-283052816D01*
X65759491Y-283068750D01*
X65727027Y-283079590D01*
X65709215Y-283084638D01*
X65708691Y-283084684D01*
X65706937Y-283070998D01*
X65705444Y-283033246D01*
X65704326Y-282976394D01*
X65703697Y-282905404D01*
X65703600Y-282862243D01*
X65703398Y-282777143D01*
X65702358Y-282716151D01*
X65699831Y-282674347D01*
X65695164Y-282646812D01*
X65687707Y-282628626D01*
X65676811Y-282614868D01*
X65670007Y-282608243D01*
X65623272Y-282581545D01*
X65572272Y-282579545D01*
X65526001Y-282602125D01*
X65517444Y-282610277D01*
X65504893Y-282625606D01*
X65496188Y-282643788D01*
X65490631Y-282670079D01*
X65487526Y-282709732D01*
X65486176Y-282768002D01*
X65485886Y-282848343D01*
X65485886Y-283052816D01*
X65440177Y-283068750D01*
X65407713Y-283079590D01*
X65389901Y-283084638D01*
X65389377Y-283084684D01*
X65388037Y-283070793D01*
X65386828Y-283031609D01*
X65385801Y-282970870D01*
X65385002Y-282892311D01*
X65384481Y-282799668D01*
X65384286Y-282696679D01*
X65384286Y-282299512D01*
X65431457Y-282279614D01*
X65478629Y-282259717D01*
X65485886Y-282381459D01*
G37*
X65485886Y-282381459D02*
X65490139Y-282440783D01*
X65495025Y-282475742D01*
X65501795Y-282490990D01*
X65511702Y-282491185D01*
X65514914Y-282489365D01*
X65557644Y-282476185D01*
X65613227Y-282476955D01*
X65669737Y-282490503D01*
X65705082Y-282508031D01*
X65741321Y-282536031D01*
X65767813Y-282567719D01*
X65785999Y-282607983D01*
X65797322Y-282661713D01*
X65803222Y-282733796D01*
X65805143Y-282829121D01*
X65805177Y-282847407D01*
X65805200Y-283052816D01*
X65759491Y-283068750D01*
X65727027Y-283079590D01*
X65709215Y-283084638D01*
X65708691Y-283084684D01*
X65706937Y-283070998D01*
X65705444Y-283033246D01*
X65704326Y-282976394D01*
X65703697Y-282905404D01*
X65703600Y-282862243D01*
X65703398Y-282777143D01*
X65702358Y-282716151D01*
X65699831Y-282674347D01*
X65695164Y-282646812D01*
X65687707Y-282628626D01*
X65676811Y-282614868D01*
X65670007Y-282608243D01*
X65623272Y-282581545D01*
X65572272Y-282579545D01*
X65526001Y-282602125D01*
X65517444Y-282610277D01*
X65504893Y-282625606D01*
X65496188Y-282643788D01*
X65490631Y-282670079D01*
X65487526Y-282709732D01*
X65486176Y-282768002D01*
X65485886Y-282848343D01*
X65485886Y-283052816D01*
X65440177Y-283068750D01*
X65407713Y-283079590D01*
X65389901Y-283084638D01*
X65389377Y-283084684D01*
X65388037Y-283070793D01*
X65386828Y-283031609D01*
X65385801Y-282970870D01*
X65385002Y-282892311D01*
X65384481Y-282799668D01*
X65384286Y-282696679D01*
X65384286Y-282299512D01*
X65431457Y-282279614D01*
X65478629Y-282259717D01*
X65485886Y-282381459D01*
G36*
X67889833Y-282488833D02*
G01*
X67892048Y-282527020D01*
X67893784Y-282585056D01*
X67894899Y-282658350D01*
X67895257Y-282735225D01*
X67895257Y-282995366D01*
X67849326Y-283041297D01*
X67817675Y-283069599D01*
X67789890Y-283081063D01*
X67751915Y-283080338D01*
X67736840Y-283078491D01*
X67689726Y-283073118D01*
X67650756Y-283070039D01*
X67641257Y-283069755D01*
X67609233Y-283071615D01*
X67563432Y-283076284D01*
X67545674Y-283078491D01*
X67502057Y-283081905D01*
X67472745Y-283074490D01*
X67443680Y-283051597D01*
X67433188Y-283041297D01*
X67387257Y-282995366D01*
X67387257Y-282508772D01*
X67424226Y-282491928D01*
X67456059Y-282479452D01*
X67474683Y-282475084D01*
X67479458Y-282488888D01*
X67483921Y-282527456D01*
X67487775Y-282586526D01*
X67490722Y-282661833D01*
X67492143Y-282725456D01*
X67496114Y-282975827D01*
X67530759Y-282980726D01*
X67562268Y-282977301D01*
X67577708Y-282966211D01*
X67582023Y-282945478D01*
X67585708Y-282901315D01*
X67588469Y-282839316D01*
X67590012Y-282765079D01*
X67590235Y-282726876D01*
X67590457Y-282506953D01*
X67636166Y-282491019D01*
X67668518Y-282480185D01*
X67686115Y-282475132D01*
X67686623Y-282475084D01*
X67688388Y-282488818D01*
X67690329Y-282526900D01*
X67692282Y-282584652D01*
X67694084Y-282657397D01*
X67695343Y-282725456D01*
X67699314Y-282975827D01*
X67786400Y-282975827D01*
X67790396Y-282747410D01*
X67794392Y-282518992D01*
X67836847Y-282497038D01*
X67868192Y-282481963D01*
X67886744Y-282475121D01*
X67887279Y-282475084D01*
X67889833Y-282488833D01*
G37*
X67889833Y-282488833D02*
X67892048Y-282527020D01*
X67893784Y-282585056D01*
X67894899Y-282658350D01*
X67895257Y-282735225D01*
X67895257Y-282995366D01*
X67849326Y-283041297D01*
X67817675Y-283069599D01*
X67789890Y-283081063D01*
X67751915Y-283080338D01*
X67736840Y-283078491D01*
X67689726Y-283073118D01*
X67650756Y-283070039D01*
X67641257Y-283069755D01*
X67609233Y-283071615D01*
X67563432Y-283076284D01*
X67545674Y-283078491D01*
X67502057Y-283081905D01*
X67472745Y-283074490D01*
X67443680Y-283051597D01*
X67433188Y-283041297D01*
X67387257Y-282995366D01*
X67387257Y-282508772D01*
X67424226Y-282491928D01*
X67456059Y-282479452D01*
X67474683Y-282475084D01*
X67479458Y-282488888D01*
X67483921Y-282527456D01*
X67487775Y-282586526D01*
X67490722Y-282661833D01*
X67492143Y-282725456D01*
X67496114Y-282975827D01*
X67530759Y-282980726D01*
X67562268Y-282977301D01*
X67577708Y-282966211D01*
X67582023Y-282945478D01*
X67585708Y-282901315D01*
X67588469Y-282839316D01*
X67590012Y-282765079D01*
X67590235Y-282726876D01*
X67590457Y-282506953D01*
X67636166Y-282491019D01*
X67668518Y-282480185D01*
X67686115Y-282475132D01*
X67686623Y-282475084D01*
X67688388Y-282488818D01*
X67690329Y-282526900D01*
X67692282Y-282584652D01*
X67694084Y-282657397D01*
X67695343Y-282725456D01*
X67699314Y-282975827D01*
X67786400Y-282975827D01*
X67790396Y-282747410D01*
X67794392Y-282518992D01*
X67836847Y-282497038D01*
X67868192Y-282481963D01*
X67886744Y-282475121D01*
X67887279Y-282475084D01*
X67889833Y-282488833D01*
G36*
X66639926Y-282479925D02*
G01*
X66705858Y-282504254D01*
X66759273Y-282547287D01*
X66780164Y-282577579D01*
X66802939Y-282633164D01*
X66802466Y-282673356D01*
X66778562Y-282700387D01*
X66769717Y-282704983D01*
X66731530Y-282719314D01*
X66712028Y-282715642D01*
X66705422Y-282691577D01*
X66705086Y-282678284D01*
X66692992Y-282629380D01*
X66661471Y-282595169D01*
X66617659Y-282578646D01*
X66568695Y-282582804D01*
X66528894Y-282604397D01*
X66515450Y-282616714D01*
X66505921Y-282631657D01*
X66499485Y-282654245D01*
X66495317Y-282689498D01*
X66492597Y-282742436D01*
X66490502Y-282818077D01*
X66489960Y-282842027D01*
X66487981Y-282923960D01*
X66485731Y-282981625D01*
X66482357Y-283019778D01*
X66477006Y-283043174D01*
X66468824Y-283056568D01*
X66456959Y-283064715D01*
X66449362Y-283068314D01*
X66417102Y-283080622D01*
X66398111Y-283084684D01*
X66391836Y-283071118D01*
X66388006Y-283030104D01*
X66386600Y-282961169D01*
X66387598Y-282863839D01*
X66387908Y-282848827D01*
X66390101Y-282760029D01*
X66392693Y-282695189D01*
X66396382Y-282649237D01*
X66401864Y-282617105D01*
X66409835Y-282593723D01*
X66420993Y-282574022D01*
X66426830Y-282565580D01*
X66460296Y-282528227D01*
X66497727Y-282499173D01*
X66502309Y-282496637D01*
X66569426Y-282476613D01*
X66639926Y-282479925D01*
G37*
X66639926Y-282479925D02*
X66705858Y-282504254D01*
X66759273Y-282547287D01*
X66780164Y-282577579D01*
X66802939Y-282633164D01*
X66802466Y-282673356D01*
X66778562Y-282700387D01*
X66769717Y-282704983D01*
X66731530Y-282719314D01*
X66712028Y-282715642D01*
X66705422Y-282691577D01*
X66705086Y-282678284D01*
X66692992Y-282629380D01*
X66661471Y-282595169D01*
X66617659Y-282578646D01*
X66568695Y-282582804D01*
X66528894Y-282604397D01*
X66515450Y-282616714D01*
X66505921Y-282631657D01*
X66499485Y-282654245D01*
X66495317Y-282689498D01*
X66492597Y-282742436D01*
X66490502Y-282818077D01*
X66489960Y-282842027D01*
X66487981Y-282923960D01*
X66485731Y-282981625D01*
X66482357Y-283019778D01*
X66477006Y-283043174D01*
X66468824Y-283056568D01*
X66456959Y-283064715D01*
X66449362Y-283068314D01*
X66417102Y-283080622D01*
X66398111Y-283084684D01*
X66391836Y-283071118D01*
X66388006Y-283030104D01*
X66386600Y-282961169D01*
X66387598Y-282863839D01*
X66387908Y-282848827D01*
X66390101Y-282760029D01*
X66392693Y-282695189D01*
X66396382Y-282649237D01*
X66401864Y-282617105D01*
X66409835Y-282593723D01*
X66420993Y-282574022D01*
X66426830Y-282565580D01*
X66460296Y-282528227D01*
X66497727Y-282499173D01*
X66502309Y-282496637D01*
X66569426Y-282476613D01*
X66639926Y-282479925D01*
G36*
X68762600Y-282488922D02*
G01*
X68779948Y-282496504D01*
X68821356Y-282529298D01*
X68856765Y-282576717D01*
X68878664Y-282627321D01*
X68882229Y-282652268D01*
X68870279Y-282687097D01*
X68844067Y-282705527D01*
X68815964Y-282716686D01*
X68803095Y-282718742D01*
X68796829Y-282703819D01*
X68784456Y-282671345D01*
X68779028Y-282656672D01*
X68748590Y-282605914D01*
X68704520Y-282580597D01*
X68648010Y-282581376D01*
X68643825Y-282582373D01*
X68613655Y-282596677D01*
X68591476Y-282624563D01*
X68576327Y-282669457D01*
X68567250Y-282734785D01*
X68563286Y-282823974D01*
X68562914Y-282871431D01*
X68562730Y-282946241D01*
X68561522Y-282997239D01*
X68558309Y-283029641D01*
X68552109Y-283048665D01*
X68541940Y-283059526D01*
X68526819Y-283067442D01*
X68525946Y-283067840D01*
X68496828Y-283080151D01*
X68482403Y-283084684D01*
X68480186Y-283070979D01*
X68478289Y-283033095D01*
X68476847Y-282975885D01*
X68475998Y-282904197D01*
X68475829Y-282851735D01*
X68476692Y-282750217D01*
X68480070Y-282673202D01*
X68487142Y-282616193D01*
X68499088Y-282574696D01*
X68517090Y-282544213D01*
X68542327Y-282520250D01*
X68567247Y-282503525D01*
X68627171Y-282481267D01*
X68696911Y-282476246D01*
X68762600Y-282488922D01*
G37*
X68762600Y-282488922D02*
X68779948Y-282496504D01*
X68821356Y-282529298D01*
X68856765Y-282576717D01*
X68878664Y-282627321D01*
X68882229Y-282652268D01*
X68870279Y-282687097D01*
X68844067Y-282705527D01*
X68815964Y-282716686D01*
X68803095Y-282718742D01*
X68796829Y-282703819D01*
X68784456Y-282671345D01*
X68779028Y-282656672D01*
X68748590Y-282605914D01*
X68704520Y-282580597D01*
X68648010Y-282581376D01*
X68643825Y-282582373D01*
X68613655Y-282596677D01*
X68591476Y-282624563D01*
X68576327Y-282669457D01*
X68567250Y-282734785D01*
X68563286Y-282823974D01*
X68562914Y-282871431D01*
X68562730Y-282946241D01*
X68561522Y-282997239D01*
X68558309Y-283029641D01*
X68552109Y-283048665D01*
X68541940Y-283059526D01*
X68526819Y-283067442D01*
X68525946Y-283067840D01*
X68496828Y-283080151D01*
X68482403Y-283084684D01*
X68480186Y-283070979D01*
X68478289Y-283033095D01*
X68476847Y-282975885D01*
X68475998Y-282904197D01*
X68475829Y-282851735D01*
X68476692Y-282750217D01*
X68480070Y-282673202D01*
X68487142Y-282616193D01*
X68499088Y-282574696D01*
X68517090Y-282544213D01*
X68542327Y-282520250D01*
X68567247Y-282503525D01*
X68627171Y-282481267D01*
X68696911Y-282476246D01*
X68762600Y-282488922D01*
G36*
X64826093Y-282457950D02*
G01*
X64872672Y-282484893D01*
X64905057Y-282511636D01*
X64928742Y-282539654D01*
X64945059Y-282573918D01*
X64955339Y-282619397D01*
X64960914Y-282681062D01*
X64963116Y-282763881D01*
X64963371Y-282823416D01*
X64963371Y-283042561D01*
X64901686Y-283070214D01*
X64840000Y-283097867D01*
X64832743Y-282857840D01*
X64829744Y-282768198D01*
X64826598Y-282703132D01*
X64822701Y-282658196D01*
X64817447Y-282628940D01*
X64810231Y-282610918D01*
X64800450Y-282599681D01*
X64797312Y-282597249D01*
X64749761Y-282578253D01*
X64701697Y-282585770D01*
X64673086Y-282605713D01*
X64661447Y-282619845D01*
X64653391Y-282638390D01*
X64648271Y-282666504D01*
X64645441Y-282709343D01*
X64644256Y-282772065D01*
X64644057Y-282837431D01*
X64644018Y-282919438D01*
X64642614Y-282977486D01*
X64637914Y-283016635D01*
X64627987Y-283041950D01*
X64610903Y-283058493D01*
X64584732Y-283071326D01*
X64549775Y-283084661D01*
X64511596Y-283099177D01*
X64516141Y-282841559D01*
X64517971Y-282748689D01*
X64520112Y-282680059D01*
X64523181Y-282630881D01*
X64527794Y-282596368D01*
X64534568Y-282571732D01*
X64544119Y-282552186D01*
X64555634Y-282534940D01*
X64611190Y-282479850D01*
X64678980Y-282447992D01*
X64752713Y-282440361D01*
X64826093Y-282457950D01*
G37*
X64826093Y-282457950D02*
X64872672Y-282484893D01*
X64905057Y-282511636D01*
X64928742Y-282539654D01*
X64945059Y-282573918D01*
X64955339Y-282619397D01*
X64960914Y-282681062D01*
X64963116Y-282763881D01*
X64963371Y-282823416D01*
X64963371Y-283042561D01*
X64901686Y-283070214D01*
X64840000Y-283097867D01*
X64832743Y-282857840D01*
X64829744Y-282768198D01*
X64826598Y-282703132D01*
X64822701Y-282658196D01*
X64817447Y-282628940D01*
X64810231Y-282610918D01*
X64800450Y-282599681D01*
X64797312Y-282597249D01*
X64749761Y-282578253D01*
X64701697Y-282585770D01*
X64673086Y-282605713D01*
X64661447Y-282619845D01*
X64653391Y-282638390D01*
X64648271Y-282666504D01*
X64645441Y-282709343D01*
X64644256Y-282772065D01*
X64644057Y-282837431D01*
X64644018Y-282919438D01*
X64642614Y-282977486D01*
X64637914Y-283016635D01*
X64627987Y-283041950D01*
X64610903Y-283058493D01*
X64584732Y-283071326D01*
X64549775Y-283084661D01*
X64511596Y-283099177D01*
X64516141Y-282841559D01*
X64517971Y-282748689D01*
X64520112Y-282680059D01*
X64523181Y-282630881D01*
X64527794Y-282596368D01*
X64534568Y-282571732D01*
X64544119Y-282552186D01*
X64555634Y-282534940D01*
X64611190Y-282479850D01*
X64678980Y-282447992D01*
X64752713Y-282440361D01*
X64826093Y-282457950D01*
G36*
X68254876Y-282486505D02*
G01*
X68296667Y-282505514D01*
X68329469Y-282528548D01*
X68353503Y-282554303D01*
X68370097Y-282587528D01*
X68380577Y-282632970D01*
X68386271Y-282695377D01*
X68388507Y-282779497D01*
X68388743Y-282834891D01*
X68388743Y-283050996D01*
X68351774Y-283067840D01*
X68322656Y-283080151D01*
X68308231Y-283084684D01*
X68305472Y-283071195D01*
X68303282Y-283034823D01*
X68301942Y-282981712D01*
X68301657Y-282939542D01*
X68300434Y-282878617D01*
X68297136Y-282830285D01*
X68292321Y-282800688D01*
X68288496Y-282794399D01*
X68262783Y-282800822D01*
X68222418Y-282817295D01*
X68175679Y-282839628D01*
X68130845Y-282863627D01*
X68096193Y-282885100D01*
X68080002Y-282899855D01*
X68079938Y-282900015D01*
X68081330Y-282927322D01*
X68093818Y-282953389D01*
X68115743Y-282974562D01*
X68147743Y-282981644D01*
X68175092Y-282980819D01*
X68213826Y-282980212D01*
X68234158Y-282989286D01*
X68246369Y-283013262D01*
X68247909Y-283017783D01*
X68253203Y-283051976D01*
X68239047Y-283072738D01*
X68202148Y-283082632D01*
X68162289Y-283084462D01*
X68090562Y-283070897D01*
X68053432Y-283051525D01*
X68007576Y-283006015D01*
X67983256Y-282950153D01*
X67981073Y-282891127D01*
X68001629Y-282836123D01*
X68032549Y-282801656D01*
X68063420Y-282782359D01*
X68111942Y-282757929D01*
X68168485Y-282733155D01*
X68177910Y-282729369D01*
X68240019Y-282701961D01*
X68275822Y-282677804D01*
X68287337Y-282653789D01*
X68276580Y-282626805D01*
X68258114Y-282605713D01*
X68214469Y-282579742D01*
X68166446Y-282577794D01*
X68122406Y-282597807D01*
X68090709Y-282637721D01*
X68086549Y-282648018D01*
X68062327Y-282685894D01*
X68026965Y-282714012D01*
X67982343Y-282737087D01*
X67982343Y-282671655D01*
X67984969Y-282631676D01*
X67996230Y-282600167D01*
X68021199Y-282566548D01*
X68045169Y-282540654D01*
X68082441Y-282503987D01*
X68111401Y-282484291D01*
X68142505Y-282476390D01*
X68177713Y-282475084D01*
X68254876Y-282486505D01*
G37*
X68254876Y-282486505D02*
X68296667Y-282505514D01*
X68329469Y-282528548D01*
X68353503Y-282554303D01*
X68370097Y-282587528D01*
X68380577Y-282632970D01*
X68386271Y-282695377D01*
X68388507Y-282779497D01*
X68388743Y-282834891D01*
X68388743Y-283050996D01*
X68351774Y-283067840D01*
X68322656Y-283080151D01*
X68308231Y-283084684D01*
X68305472Y-283071195D01*
X68303282Y-283034823D01*
X68301942Y-282981712D01*
X68301657Y-282939542D01*
X68300434Y-282878617D01*
X68297136Y-282830285D01*
X68292321Y-282800688D01*
X68288496Y-282794399D01*
X68262783Y-282800822D01*
X68222418Y-282817295D01*
X68175679Y-282839628D01*
X68130845Y-282863627D01*
X68096193Y-282885100D01*
X68080002Y-282899855D01*
X68079938Y-282900015D01*
X68081330Y-282927322D01*
X68093818Y-282953389D01*
X68115743Y-282974562D01*
X68147743Y-282981644D01*
X68175092Y-282980819D01*
X68213826Y-282980212D01*
X68234158Y-282989286D01*
X68246369Y-283013262D01*
X68247909Y-283017783D01*
X68253203Y-283051976D01*
X68239047Y-283072738D01*
X68202148Y-283082632D01*
X68162289Y-283084462D01*
X68090562Y-283070897D01*
X68053432Y-283051525D01*
X68007576Y-283006015D01*
X67983256Y-282950153D01*
X67981073Y-282891127D01*
X68001629Y-282836123D01*
X68032549Y-282801656D01*
X68063420Y-282782359D01*
X68111942Y-282757929D01*
X68168485Y-282733155D01*
X68177910Y-282729369D01*
X68240019Y-282701961D01*
X68275822Y-282677804D01*
X68287337Y-282653789D01*
X68276580Y-282626805D01*
X68258114Y-282605713D01*
X68214469Y-282579742D01*
X68166446Y-282577794D01*
X68122406Y-282597807D01*
X68090709Y-282637721D01*
X68086549Y-282648018D01*
X68062327Y-282685894D01*
X68026965Y-282714012D01*
X67982343Y-282737087D01*
X67982343Y-282671655D01*
X67984969Y-282631676D01*
X67996230Y-282600167D01*
X68021199Y-282566548D01*
X68045169Y-282540654D01*
X68082441Y-282503987D01*
X68111401Y-282484291D01*
X68142505Y-282476390D01*
X68177713Y-282475084D01*
X68254876Y-282486505D01*
%TD*%
M02*
